<?xml version="1.0" standalone="no"?>
<!DOCTYPE svg PUBLIC "-//W3C//DTD SVG 20010904//EN"
 "http://www.w3.org/TR/2001/REC-SVG-20010904/DTD/svg10.dtd">
<svg version="1.0" xmlns="http://www.w3.org/2000/svg"
 width="352.000000pt" height="77.000000pt" viewBox="0 0 352.000000 77.000000"
 preserveAspectRatio="xMidYMid meet">

<g transform="translate(0.000000,77.000000) scale(0.100000,-0.100000)"
fill="#000000" stroke="none">
<path d="M217 730 c-4 -25 -7 -99 -8 -165 -2 -177 6 -165 -104 -165 -52 0 -96
-3 -99 -8 -2 -4 24 -66 58 -137 35 -72 75 -158 91 -192 26 -60 29 -63 63 -63
l35 0 -4 188 -4 187 170 -4 c94 -2 172 -5 174 -7 3 -2 7 -82 10 -178 3 -96 9
-177 12 -180 6 -6 19 202 19 307 l0 58 79 -7 c94 -8 151 0 151 22 0 9 -46 98
-102 200 -101 180 -103 184 -135 184 l-33 0 0 -180 c0 -99 -1 -180 -2 -180 -2
-1 -81 -3 -175 -7 l-173 -6 -1 99 c-1 55 -4 140 -8 189 -6 83 -7 86 -14 45z
m502 -185 c39 -69 71 -127 71 -130 0 -3 -37 -5 -81 -5 l-82 0 7 77 c3 42 6
100 6 130 0 29 2 53 4 53 2 0 36 -56 75 -125z m-519 -315 c0 -82 -2 -150 -4
-150 -5 0 -152 258 -162 284 -5 14 5 16 80 16 l86 0 0 -150z"/>
<path d="M2453 694 c-15 -24 -15 -29 -2 -53 29 -51 119 -33 119 24 0 55 -86
76 -117 29z"/>
<path d="M1065 683 c11 -3 28 -12 38 -21 15 -14 17 -40 17 -267 0 -227 -2
-253 -17 -267 -10 -9 -27 -18 -38 -21 -11 -2 39 -5 110 -4 72 0 119 2 105 4
-47 9 -50 18 -50 154 l0 129 180 0 180 0 0 -118 c0 -127 -9 -157 -53 -165 -12
-2 37 -4 108 -4 72 0 118 2 103 4 -54 8 -58 25 -58 280 0 127 4 243 10 257 6
16 21 29 42 35 25 7 2 9 -97 10 -118 0 -127 -1 -99 -13 17 -8 34 -21 38 -31 3
-9 6 -64 6 -121 l0 -104 -180 0 -181 0 3 123 3 122 35 12 c30 10 18 12 -95 11
-71 0 -121 -3 -110 -5z"/>
<path d="M2005 534 c-121 -45 -180 -204 -121 -330 27 -57 65 -86 140 -105 58
-14 155 0 224 32 45 22 59 45 16 29 -34 -13 -156 -13 -191 1 -65 24 -116 103
-111 172 l3 42 163 3 162 2 0 29 c0 41 -39 93 -90 119 -52 26 -133 29 -195 6z
m163 -25 c29 -11 50 -55 36 -77 -14 -21 -40 -27 -146 -35 -81 -7 -88 -6 -88
11 0 30 43 86 80 105 35 17 64 16 118 -4z"/>
<path d="M2460 527 l-75 -21 38 -14 37 -15 0 -172 c0 -183 -1 -189 -50 -198
-14 -2 31 -5 100 -5 86 0 116 2 96 8 -16 5 -33 15 -37 22 -5 7 -9 104 -9 216
0 155 -3 202 -12 201 -7 -1 -47 -11 -88 -22z"/>
<path d="M2826 535 c-49 -17 -84 -51 -91 -90 -10 -50 27 -94 123 -141 97 -48
132 -78 132 -113 0 -31 -7 -42 -40 -64 -53 -36 -149 -7 -194 59 l-24 35 -4
-43 c-3 -24 0 -48 6 -55 6 -7 46 -18 88 -24 148 -22 248 30 248 130 0 47 -44
88 -139 132 -102 47 -121 63 -121 100 0 61 101 92 164 49 17 -10 40 -36 53
-57 l23 -38 0 52 0 52 -52 16 c-63 18 -120 19 -172 0z"/>
<path d="M3277 537 c-55 -17 -97 -62 -97 -103 0 -48 42 -90 134 -135 120 -58
148 -98 106 -152 -47 -59 -145 -44 -209 31 l-41 47 0 -46 c0 -26 6 -51 13 -57
20 -17 146 -34 192 -26 135 22 189 138 99 212 -20 17 -63 40 -96 53 -61 24
-128 75 -128 98 0 7 14 26 30 43 28 28 35 30 82 26 43 -5 57 -11 82 -40 17
-19 36 -43 43 -54 10 -16 12 -12 12 29 1 46 0 49 -36 64 -49 21 -138 26 -186
10z"/>
</g>
</svg>
